<svg width="100" height="100" viewBox="0 0 100 100" fill="none"
    xmlns="http://www.w3.org/2000/svg">
    <g clip-path="url(#clip0_436_14466)">
        <rect width="100" height="100" fill="black" fill-opacity="0.5"/>
        <g filter="url(#filter0_f_436_14466)">
            <circle cx="20.6651" cy="64.4744" r="57.7466" fill="#2626FF" fill-opacity="0.4"/>
        </g>
        <g opacity="0.2" filter="url(#filter1_f_436_14466)">
            <circle cx="66.9786" cy="25.0453" r="57.7466" fill="#62FF5F"/>
        </g>
        <g opacity="0.2" filter="url(#filter2_f_436_14466)">
            <circle cx="21.9168" cy="25.0453" r="57.7466" fill="#5FFFF5"/>
        </g>
        <g opacity="0.2" filter="url(#filter3_f_436_14466)">
            <circle cx="56.9649" cy="71.3588" r="57.7466" fill="#D55FFF"/>
        </g>
        <path fill-rule="evenodd" clip-rule="evenodd" d="M55.4731 49.613C54.6404 49.2524 53.7219 49.0526 52.7567 49.0526C50.927 49.0526 49.2651 49.7707 48.0374 50.9405C46.7644 50.0567 45.326 49.3944 43.778 49.0094L35.4721 42.3085C35.1942 42.0894 35.0052 41.7517 35.0006 41.3437C35 41.2867 34.9996 41.2298 34.9996 41.1728C34.9996 32.8885 41.7154 26.1728 49.9996 26.1728C58.2839 26.1728 64.9996 32.8885 64.9996 41.1728C64.9996 41.2298 64.9993 41.2867 64.9987 41.3437C64.9941 41.7517 64.805 42.0894 64.5271 42.3085L55.4731 49.613ZM61.4962 41.5416C60.8253 41.2996 60.11 41.1728 59.3746 41.1728C58.0348 41.1728 56.7622 41.5943 55.7055 42.3624L53.1535 48.2722L61.4962 41.5416ZM53.1331 42.0134C52.1936 41.4676 51.1202 41.1728 49.9996 41.1728C48.8791 41.1728 47.8057 41.4676 46.8662 42.0134L49.9996 49.2697L53.1331 42.0134ZM44.2937 42.3624C43.237 41.5943 41.9645 41.1728 40.6246 41.1728C39.8893 41.1728 39.174 41.2996 38.5031 41.5416L46.8458 48.2722L44.2937 42.3624Z" fill="white"/>
        <path d="M9.89924 71.5328C9.91138 71.5418 9.92365 71.5507 9.93606 71.5594C10.6998 72.0941 11.5835 72.1651 12.3887 72.0231C13.1952 71.8809 14.0337 71.52 14.5757 70.7328C15.1143 69.9506 15.158 69.0403 15.0162 68.2365L13.9821 62.3713C13.8238 61.4739 13.9441 60.9505 14.1176 60.6436L14.1279 60.625C14.2841 60.3392 14.5142 60.144 15.0044 60.0576C15.2528 60.0138 15.3859 60.0298 15.4381 60.042C15.4538 60.0456 15.4625 60.0489 15.4659 60.0505C15.4662 60.0507 15.4664 60.0509 15.4667 60.0512C15.4757 60.0603 15.4848 60.0693 15.494 60.0781C15.5782 60.159 15.8079 60.4909 15.9685 61.4022L17.1086 67.8675C17.252 68.6811 17.6148 69.4885 18.3559 70.0416C18.3802 70.0597 18.405 70.0771 18.4304 70.0937C19.1937 70.5945 20.062 70.6701 20.8727 70.5271C21.6779 70.3851 22.4841 70.0162 23.0189 69.2525C23.0276 69.2401 23.0361 69.2276 23.0444 69.2149C23.5516 68.4417 23.6164 67.5589 23.4729 66.7453L22.4388 60.8802C22.2805 59.9827 22.4008 59.4593 22.5743 59.1524L22.5846 59.1338C22.7408 58.8481 22.9709 58.6529 23.4611 58.5665C23.7227 58.5203 23.8653 58.536 23.9238 58.5492C23.9392 58.5527 23.9485 58.5559 23.9532 58.5577C23.9613 58.566 23.9696 58.5741 23.978 58.5822C24.0622 58.663 24.2918 58.9949 24.4525 59.9063L25.5925 66.3716C25.736 67.1852 26.0988 67.9925 26.8399 68.5457C26.8521 68.5547 26.8643 68.5636 26.8767 68.5723C27.6405 69.107 28.5242 69.178 29.3294 69.036C30.1346 68.894 30.9408 68.5251 31.4756 67.7614C32.0192 66.985 32.1045 66.0864 31.9569 65.2494L30.7929 58.6477C30.5548 57.2975 30.1627 56.1049 29.5575 55.1439C28.9369 54.1451 28.0873 53.3894 27.0028 52.9766C25.9517 52.5663 24.7876 52.5297 23.5872 52.7414C22.2308 52.9806 21.0401 53.5558 20.0717 54.4869C19.8828 54.6643 19.7074 54.8504 19.5456 55.0448C19.3408 54.8988 19.1234 54.768 18.8929 54.6536C17.7602 54.0917 16.4936 53.9922 15.1851 54.2229C13.9185 54.4463 12.8002 54.9627 11.9001 55.8114C11.8793 55.796 11.8582 55.7807 11.8368 55.7657L11.5671 56.1508C11.5671 56.1508 11.5671 56.1508 11.5671 56.1508L11.8368 55.7657C11.0836 55.2384 10.215 55.1555 9.41138 55.2972C8.60776 55.4389 7.81985 55.8139 7.2925 56.567L7.2925 56.567C6.75076 57.3407 6.69128 58.2397 6.83362 59.047L8.65185 69.3587C8.79531 70.1722 9.15812 70.9796 9.89924 71.5328Z" stroke="white" stroke-width="3" stroke-linejoin="round"/>
        <path d="M33.2551 67.4859L33.2664 67.5022C34.1799 68.8036 35.3979 69.7654 36.8849 70.376L37.4547 68.9884L36.8849 70.376C38.3808 70.9902 40.0577 71.1848 41.8694 71.0263C42.7604 70.9483 43.6834 70.7526 44.6344 70.4523L44.6573 70.4449C45.6702 70.107 46.5836 69.6448 47.3779 69.0443C47.8709 68.6787 48.3032 68.1948 48.5421 67.5671C48.7608 67.0375 48.8551 66.4363 48.7115 65.8129C48.582 65.2394 48.29 64.7191 47.8251 64.318C47.5186 64.0414 47.1721 63.8674 46.815 63.7728C47.1232 63.6595 47.4242 63.4938 47.692 63.2538L47.7056 63.2415C48.3229 62.6745 48.5622 61.9142 48.4953 61.1494C48.3861 59.901 48.1099 58.7492 47.6406 57.7167C47.1929 56.6714 46.5683 55.7673 45.7548 55.0361C44.9611 54.3034 44.0276 53.7776 42.9767 53.4547C41.9283 53.1247 40.8026 53.0289 39.6225 53.1321C37.9909 53.2749 36.5145 53.7888 35.2364 54.6999C33.99 55.5797 33.0443 56.7384 32.4084 58.1462L32.4002 58.1646C31.7745 59.601 31.5634 61.1883 31.7118 62.8844C31.8636 64.6199 32.3596 66.1735 33.2551 67.4859ZM39.0918 64.7267C39.0458 64.6841 39.0002 64.6373 38.9553 64.5859L44.5412 64.0972C44.4081 64.1708 44.2816 64.2504 44.1623 64.3327C43.7531 64.6064 43.3079 64.8184 42.8214 64.9686C42.2801 65.119 41.8157 65.2051 41.4224 65.2395C40.226 65.3442 39.5257 65.0925 39.0918 64.7267ZM41.343 58.7915C41.5107 58.8755 41.6664 58.9987 41.8075 59.1919L38.6012 59.4724C38.7162 59.3057 38.8442 59.1724 38.9818 59.0641L38.9818 59.0641L38.9912 59.0566C39.2775 58.8272 39.6716 58.6574 40.2496 58.6069C40.7719 58.5612 41.0864 58.6498 41.2827 58.7595C41.3025 58.7706 41.3226 58.7813 41.343 58.7915Z" stroke="white" stroke-width="3" stroke-linejoin="round"/>
        <path d="M49.7263 68.967C49.7356 68.9789 49.7452 68.9906 49.7549 69.0022C50.3642 69.7283 51.2147 70.0324 52.0498 70.1055C52.8872 70.1787 53.8071 70.0431 54.5461 69.413C55.2805 68.7869 55.5651 67.903 55.6382 67.0679L56.1765 60.9144C56.2596 59.9649 56.5237 59.4588 56.7919 59.1857L56.8067 59.1704C57.0527 58.9125 57.3529 58.7739 57.8822 58.8202C58.1482 58.8435 58.285 58.8967 58.3423 58.9273C58.3817 58.9483 58.3872 58.9589 58.39 58.9644C58.3902 58.9649 58.3905 58.9654 58.3907 58.9659C58.3971 58.9769 58.4035 58.988 58.4101 58.9989C58.482 59.1177 58.6219 59.5264 58.5379 60.4865L57.9445 67.2697C57.8706 68.1139 58.0161 69.0046 58.5988 69.7432C58.6175 69.767 58.637 69.7902 58.6572 69.8128C59.2756 70.506 60.1103 70.8107 60.9509 70.8842C61.786 70.9573 62.6763 70.8055 63.4024 70.1962C63.414 70.1865 63.4255 70.1766 63.4368 70.1665C64.1388 69.5402 64.4368 68.6884 64.5107 67.8442L65.049 61.6907C65.1321 60.7411 65.3962 60.2351 65.6644 59.9619L65.6792 59.9466C65.9252 59.6888 66.2254 59.5501 66.7547 59.5964C67.0344 59.6209 67.1808 59.6762 67.244 59.7095C67.2735 59.725 67.2847 59.7355 67.2864 59.7371L67.2866 59.7373C67.2878 59.7384 67.289 59.7395 67.2919 59.7446C67.2982 59.7557 67.3046 59.7667 67.3113 59.7776C67.3831 59.8965 67.5231 60.3051 67.439 61.2653L66.8456 68.0484C66.7717 68.8926 66.9173 69.7833 67.4999 70.522C67.5093 70.5339 67.5188 70.5456 67.5286 70.5572C68.1378 71.2833 68.9883 71.5874 69.8234 71.6605C70.6585 71.7335 71.5488 71.5817 72.2749 70.9725C73.0137 70.3526 73.3359 69.4908 73.4118 68.6229L74.0178 61.6966C74.1413 60.2844 74.0685 58.9921 73.723 57.876C73.3724 56.7187 72.7305 55.7444 71.7657 55.0477C70.8334 54.3621 69.6876 54.0152 68.4351 53.9057C67.022 53.782 65.6857 54.0368 64.4761 54.7041C64.2255 54.8385 63.9875 54.9868 63.7624 55.1485C63.5895 54.9344 63.398 54.7336 63.1868 54.5475C62.2138 53.6902 60.9838 53.2538 59.6198 53.1344C58.2841 53.0176 57.0218 53.2401 55.8924 53.86C55.8669 53.8268 55.8406 53.794 55.8134 53.7615L54.682 54.7109L55.8134 53.7615C55.2124 53.0453 54.3799 52.7337 53.5471 52.6608C52.7144 52.588 51.8404 52.7503 51.1242 53.3513L51.1242 53.3513C50.3888 53.9684 50.0918 54.837 50.0185 55.6747L49.072 66.4935C48.9981 67.3377 49.1436 68.2283 49.7263 68.967Z" stroke="white" stroke-width="3" stroke-linejoin="round"/>
        <path d="M75.9071 65.5186L75.9138 65.5373C76.4578 67.0266 77.3828 68.2675 78.6576 69.2395C79.94 70.2172 81.5049 70.8373 83.2905 71.1522C84.1687 71.3071 85.1081 71.3567 86.1014 71.3129L86.1254 71.3116C87.1881 71.2476 88.1872 71.0382 89.1073 70.6648C89.6768 70.4398 90.2188 70.085 90.6113 69.5413C90.959 69.0873 91.2053 68.5319 91.2278 67.8935C91.2511 67.307 91.1041 66.7298 90.7592 66.2228C90.5383 65.8817 90.2541 65.6267 89.9396 65.4438C90.261 65.4129 90.5886 65.331 90.9038 65.1713L90.92 65.1629C91.6621 64.7755 92.0895 64.1039 92.2226 63.349C92.4396 62.1186 92.4708 60.938 92.2853 59.8224C92.1238 58.6999 91.7556 57.6679 91.1606 56.7534C90.5851 55.8427 89.8215 55.0952 88.8925 54.5129C87.9677 53.9244 86.9082 53.5416 85.7449 53.3365C84.1366 53.0529 82.5819 53.1668 81.1155 53.7145C79.6878 54.2404 78.4778 55.1124 77.5019 56.3043L77.4893 56.32C76.5158 57.5421 75.9028 59.0165 75.6081 60.6883C75.3064 62.3988 75.3831 64.0233 75.9071 65.5186ZM82.1562 64.2023L87.6265 65.1668C87.4874 65.2022 87.3527 65.2442 87.2236 65.2901C86.7596 65.4479 86.2768 65.537 85.7703 65.5561C85.2106 65.5613 84.7417 65.5244 84.3546 65.4562C83.1767 65.2485 82.5689 64.8261 82.2466 64.3635C82.215 64.3134 82.1848 64.2597 82.1562 64.2023ZM85.9371 59.2371C86.0745 59.3591 86.1909 59.5148 86.2764 59.7321L83.1369 59.1785C83.2876 59.0515 83.4421 58.9587 83.5991 58.8913L83.5991 58.8914L83.6101 58.8865C83.9439 58.7401 84.366 58.6783 84.9347 58.7786C85.4485 58.8692 85.7274 59.0352 85.8871 59.1906C85.9035 59.2065 85.9201 59.222 85.9371 59.2371Z" stroke="white" stroke-width="3" stroke-linejoin="round"/>
    </g>
    <defs>
        <filter id="filter0_f_436_14466" x="-171.081" y="-127.272" width="383.493" height="383.493" filterUnits="userSpaceOnUse" color-interpolation-filters="sRGB">
            <feFlood flood-opacity="0" result="BackgroundImageFix"/>
            <feBlend mode="normal" in="SourceGraphic" in2="BackgroundImageFix" result="shape"/>
            <feGaussianBlur stdDeviation="67" result="effect1_foregroundBlur_436_14466"/>
        </filter>
        <filter id="filter1_f_436_14466" x="-124.768" y="-166.701" width="383.493" height="383.493" filterUnits="userSpaceOnUse" color-interpolation-filters="sRGB">
            <feFlood flood-opacity="0" result="BackgroundImageFix"/>
            <feBlend mode="normal" in="SourceGraphic" in2="BackgroundImageFix" result="shape"/>
            <feGaussianBlur stdDeviation="67" result="effect1_foregroundBlur_436_14466"/>
        </filter>
        <filter id="filter2_f_436_14466" x="-169.83" y="-166.701" width="383.493" height="383.493" filterUnits="userSpaceOnUse" color-interpolation-filters="sRGB">
            <feFlood flood-opacity="0" result="BackgroundImageFix"/>
            <feBlend mode="normal" in="SourceGraphic" in2="BackgroundImageFix" result="shape"/>
            <feGaussianBlur stdDeviation="67" result="effect1_foregroundBlur_436_14466"/>
        </filter>
        <filter id="filter3_f_436_14466" x="-134.782" y="-120.388" width="383.493" height="383.493" filterUnits="userSpaceOnUse" color-interpolation-filters="sRGB">
            <feFlood flood-opacity="0" result="BackgroundImageFix"/>
            <feBlend mode="normal" in="SourceGraphic" in2="BackgroundImageFix" result="shape"/>
            <feGaussianBlur stdDeviation="67" result="effect1_foregroundBlur_436_14466"/>
        </filter>
        <clipPath id="clip0_436_14466">
            <rect width="100" height="100" fill="white"/>
        </clipPath>
    </defs>
</svg>
